<?xml version="1.0" encoding="UTF-8"?>
<svg width="201px" height="177px" viewBox="0 0 201 177" version="1.1" xmlns="http://www.w3.org/2000/svg" xmlns:xlink="http://www.w3.org/1999/xlink">
    <!-- Generator: Sketch 43.2 (39069) - http://www.bohemiancoding.com/sketch -->
    <title>bar-codel</title>
    <desc>Created with Sketch.</desc>
    <defs></defs>
    <g id="Icons" stroke="none" stroke-width="1" fill="none" fill-rule="evenodd">
        <g id="bar-codel" fill-rule="nonzero" fill="#211915">
            <path d="M10.32,0.2 C4.7971525,0.2 0.32,4.6771525 0.32,10.2 L0.32,166.3 C0.32,171.822847 4.7971525,176.3 10.32,176.3 C15.8428475,176.3 20.32,171.822847 20.32,166.3 L20.32,10.2 C20.32,4.6771525 15.8428475,0.2 10.32,0.2 L10.32,0.2 Z" id="Shape"></path>
            <path d="M115.32,0.2 C112.558576,0.2 110.32,2.43857625 110.32,5.2 L110.32,171.3 C110.32,174.061424 112.558576,176.3 115.32,176.3 C118.081424,176.3 120.32,174.061424 120.32,171.3 L120.32,5.2 C120.32,2.43857625 118.081424,0.2 115.32,0.2 Z" id="Shape"></path>
            <path d="M35.32,0.2 C32.5585763,0.2 30.32,2.43857625 30.32,5.2 L30.32,171.3 C30.3200001,174.061424 32.5585763,176.3 35.32,176.3 C38.0814237,176.3 40.3199999,174.061424 40.32,171.3 L40.32,5.2 C40.32,2.43857625 38.0814237,0.2 35.32,0.2 Z" id="Shape"></path>
            <path d="M190.32,0.2 C184.797153,0.2 180.32,4.6771525 180.32,10.2 L180.32,166.3 C180.32,171.822847 184.797153,176.3 190.32,176.3 C195.842847,176.3 200.32,171.822847 200.32,166.3 L200.32,10.2 C200.32,4.6771525 195.842847,0.2 190.32,0.2 Z" id="Shape"></path>
            <path d="M85.32,0.2 C77.0357288,0.2 70.32,6.91572875 70.32,15.2 L70.32,161.3 C70.32,169.584271 77.0357288,176.3 85.32,176.3 C93.6042712,176.3 100.32,169.584271 100.32,161.3 L100.32,15.2 C100.32,6.91572875 93.6042712,0.2 85.32,0.2 Z" id="Shape"></path>
            <path d="M147.82,0.2 C139.535729,0.2 132.82,6.91572875 132.82,15.2 L132.82,161.3 C132.82,169.584271 139.535729,176.3 147.82,176.3 C156.104271,176.3 162.82,169.584271 162.82,161.3 L162.82,15.2 C162.82,6.91572875 156.104271,0.2 147.82,0.2 Z" id="Shape"></path>
        </g>
    </g>
</svg>