<?xml version="1.0" encoding="UTF-8"?>
<svg width="222px" height="174px" viewBox="0 0 222 174" version="1.1" xmlns="http://www.w3.org/2000/svg" xmlns:xlink="http://www.w3.org/1999/xlink">
    <!-- Generator: Sketch 43.2 (39069) - http://www.bohemiancoding.com/sketch -->
    <title>credit-card</title>
    <desc>Created with Sketch.</desc>
    <defs></defs>
    <g id="Icons" stroke="none" stroke-width="1" fill="none" fill-rule="evenodd">
        <g id="credit-card" fill-rule="nonzero" fill="#211915">
            <path d="M202.28,0.74 L19.72,0.74 C8.95859963,0.772943294 0.242943294,9.48859963 0.21,20.25 L0.21,154 C0.242943294,164.7614 8.95859963,173.477057 19.72,173.51 L202.28,173.51 C213.0414,173.477057 221.757057,164.7614 221.79,154 L221.79,20.25 C221.757057,9.48859963 213.0414,0.772943294 202.28,0.74 Z M212,154 C211.988997,159.380212 207.630212,163.738997 202.25,163.75 L19.72,163.75 C14.3492279,163.727991 10.0054578,159.370814 10,154 L10,20.25 C10.0110025,14.8697877 14.3697877,10.5110025 19.75,10.5 L202.28,10.5 C207.648493,10.5274636 211.98908,14.8814479 212,20.25 L212,154 Z" id="Shape"></path>
            <path d="M55.05,119.88 L45.29,119.88 C42.5948504,119.88 40.41,122.06485 40.41,124.76 C40.41,127.45515 42.5948504,129.64 45.29,129.64 L55.05,129.64 C57.7451496,129.64 59.93,127.45515 59.93,124.76 C59.93,122.06485 57.7451496,119.88 55.05,119.88 L55.05,119.88 Z" id="Shape"></path>
            <path d="M95.6,119.88 L85.84,119.88 C83.1448504,119.88 80.96,122.06485 80.96,124.76 C80.96,127.45515 83.1448504,129.64 85.84,129.64 L95.6,129.64 C98.2951496,129.64 100.48,127.45515 100.48,124.76 C100.48,122.06485 98.2951496,119.88 95.6,119.88 Z" id="Shape"></path>
            <path d="M136.15,119.88 L126.39,119.88 C123.69485,119.88 121.51,122.06485 121.51,124.76 C121.51,127.45515 123.69485,129.64 126.39,129.64 L136.15,129.64 C138.84515,129.64 141.03,127.45515 141.03,124.76 C141.03,122.06485 138.84515,119.88 136.15,119.88 L136.15,119.88 Z" id="Shape"></path>
            <path d="M176.7,119.88 L166.94,119.88 C164.24485,119.88 162.06,122.06485 162.06,124.76 C162.06,127.45515 164.24485,129.64 166.94,129.64 L176.7,129.64 C179.39515,129.64 181.58,127.45515 181.58,124.76 C181.58,122.06485 179.39515,119.88 176.7,119.88 Z" id="Shape"></path>
            <path d="M90.73,66.42 C90.73,56.4788745 82.6711255,48.42 72.73,48.42 L53.23,48.42 C43.2888745,48.42 35.23,56.4788745 35.23,66.42 C35.23,76.3611255 43.2888745,84.42 53.23,84.42 L72.74,84.42 C82.67722,84.4144793 90.7300015,76.3572216 90.73,66.42 Z" id="Shape"></path>
        </g>
    </g>
</svg>