<?xml version="1.0" encoding="UTF-8"?>
<svg width="223px" height="173px" viewBox="0 0 223 173" version="1.1" xmlns="http://www.w3.org/2000/svg" xmlns:xlink="http://www.w3.org/1999/xlink">
    <!-- Generator: Sketch 43.2 (39069) - http://www.bohemiancoding.com/sketch -->
    <title>debit-card</title>
    <desc>Created with Sketch.</desc>
    <defs></defs>
    <g id="Icons" stroke="none" stroke-width="1" fill="none" fill-rule="evenodd">
        <g id="debit-card" fill-rule="nonzero" fill="#211915">
            <path d="M202.7,0.16 L20.15,0.16 C9.38859963,0.192943294 0.672943294,8.90859963 0.64,19.67 L0.64,153.44 C0.645458237,164.220921 9.36912787,172.966948 20.15,173 L202.7,173 C213.4614,172.967057 222.177057,164.2514 222.21,153.49 L222.21,19.67 C222.177057,8.90859963 213.4614,0.192943294 202.7,0.16 Z M20.15,9.91 L202.7,9.91 C208.080212,9.92100251 212.438997,14.2797877 212.45,19.66 L212.45,47.84 L10.39,47.84 L10.39,19.67 C10.395512,14.2819857 14.7619857,9.91551204 20.15,9.91 L20.15,9.91 Z M202.7,163.19 L20.15,163.19 C14.7675085,163.184488 10.405512,158.822492 10.4,153.44 L10.4,83.82 L212.46,83.82 L212.46,153.44 C212.448981,158.824109 208.084117,163.1845 202.7,163.19 Z" id="Shape"></path>
            <path d="M75.12,119.29 L52.27,119.29 C46.0917227,119.472804 41.1780459,124.534019 41.1780459,130.715 C41.1780459,136.895981 46.0917227,141.957196 52.27,142.14 L75.12,142.14 C79.2823578,142.263157 83.1823414,140.112901 85.2998868,136.52732 C87.4174322,132.941739 87.4174322,128.488261 85.2998868,124.90268 C83.1823414,121.317099 79.2823578,119.166843 75.12,119.29 L75.12,119.29 Z" id="Shape"></path>
            <path d="M170,119.29 L115.6,119.29 C109.421723,119.472804 104.508046,124.534019 104.508046,130.715 C104.508046,136.895981 109.421723,141.957196 115.6,142.14 L170,142.14 C176.178277,141.957196 181.091954,136.895981 181.091954,130.715 C181.091954,124.534019 176.178277,119.472804 170,119.29 Z" id="Shape"></path>
        </g>
    </g>
</svg>