<?xml version="1.0" encoding="UTF-8"?>
<svg width="254px" height="300px" viewBox="0 0 254 300" version="1.1" xmlns="http://www.w3.org/2000/svg" xmlns:xlink="http://www.w3.org/1999/xlink">
    <!-- Generator: Sketch 43.2 (39069) - http://www.bohemiancoding.com/sketch -->
    <title>double-arrows-down</title>
    <desc>Created with Sketch.</desc>
    <defs></defs>
    <g id="Icons" stroke="none" stroke-width="1" fill="none" fill-rule="evenodd">
        <g id="double-arrows-down" fill="#000000">
            <path d="M125.659721,154.340279 C124.444437,156.770847 123.836804,158.472219 123.836804,159.444446 L122.013888,162.725696 C122.013888,162.968753 121.892361,163.090279 121.649304,163.090279 L16.6493042,269.548612 C12.2742824,273.923634 6.92711361,276.111112 0.607637564,276.111112 C-5.71183848,276.111112 -11.3020604,273.923634 -16.1631958,269.548612 C-20.7812744,264.930534 -23.0902791,259.522602 -23.0902791,253.324654 C-23.0902791,247.126706 -20.7812744,241.597248 -16.1631958,236.736112 L70.2430542,149.600696 L-16.1631958,62.4652791 C-20.7812744,57.8472005 -23.0902791,52.3785051 -23.0902791,46.0590291 C-23.0902791,39.7395531 -20.8420377,34.331621 -16.3454874,29.8350708 C-11.8489372,25.3385205 -6.38024186,23.0902791 0.0607625643,23.0902791 C6.50176699,23.0902791 12.0312256,25.2777572 16.6493042,29.6527791 L121.649304,136.111112 C122.135418,137.08334 122.560761,137.873262 122.925346,138.480904 C123.289931,139.088546 123.532984,139.574652 123.654513,139.939237 C123.776041,140.303823 123.897568,140.486112 124.019096,140.486112 C124.140624,140.486112 124.201388,140.607639 124.201388,140.850696 L125.659721,145.225696 L125.659721,147.777779 C125.902778,148.750006 126.024304,149.357639 126.024304,149.600696 L125.659721,151.423612 L125.659721,154.340279 Z M275.746529,154.340279 C274.531245,156.770847 273.923612,158.472219 273.923612,159.444446 L272.100696,162.725696 C272.100696,162.968753 271.979169,163.090279 271.736112,163.090279 L166.736112,269.548612 C162.361091,273.923634 157.013922,276.111112 150.694446,276.111112 C144.37497,276.111112 138.784748,273.923634 133.923612,269.548612 C129.305534,264.930534 126.996529,259.522602 126.996529,253.324654 C126.996529,247.126706 129.305534,241.597248 133.923612,236.736112 L220.329862,149.600696 L133.923612,62.4652791 C129.305534,57.8472005 126.996529,52.3785051 126.996529,46.0590291 C126.996529,39.7395531 129.244771,34.331621 133.741321,29.8350708 C138.237871,25.3385205 143.706566,23.0902791 150.147571,23.0902791 C156.588575,23.0902791 162.118034,25.2777572 166.736112,29.6527791 L271.736112,136.111112 C272.222226,137.08334 272.647569,137.873262 273.012154,138.480904 C273.376739,139.088546 273.619792,139.574652 273.741321,139.939237 C273.862849,140.303823 273.984376,140.486112 274.105904,140.486112 C274.227432,140.486112 274.288196,140.607639 274.288196,140.850696 L275.746529,145.225696 L275.746529,147.777779 C275.989586,148.750006 276.111112,149.357639 276.111112,149.600696 L275.746529,151.423612 L275.746529,154.340279 Z" id="&gt;&gt;" transform="translate(126.510417, 149.600696) rotate(-270.000000) translate(-126.510417, -149.600696) "></path>
        </g>
    </g>
</svg>