<?xml version="1.0" encoding="UTF-8"?>
<svg width="301px" height="300px" viewBox="0 0 301 300" version="1.1" xmlns="http://www.w3.org/2000/svg" xmlns:xlink="http://www.w3.org/1999/xlink">
    <!-- Generator: Sketch 43.2 (39069) - http://www.bohemiancoding.com/sketch -->
    <title>label-error</title>
    <desc>Created with Sketch.</desc>
    <defs></defs>
    <g id="Icons" stroke="none" stroke-width="1" fill="none" fill-rule="evenodd">
        <g id="label-error" transform="translate(0.500000, 0.000000)" fill-rule="nonzero" fill="#211915">
            <path d="M150,0 C67.1572875,-5.07265313e-15 1.01453063e-14,67.1572875 0,150 C-1.01453063e-14,232.842712 67.1572875,300 150,300 C232.842712,300 300,232.842712 300,150 C300,110.217527 284.196474,72.0644396 256.066017,43.9339828 C227.93556,15.8035261 189.782473,2.43597394e-15 150,0 Z M150,281.29 C77.64,281.29 18.75,222.4 18.75,150 C18.75,77.6 77.64,18.75 150,18.75 C222.36,18.75 281.29,77.64 281.29,150 C281.29,222.36 222.4,281.29 150,281.29 Z" id="Shape"></path>
            <path d="M192.08,99.29 C188.05188,96.0381638 182.151786,96.6599327 178.89,100.68 L150,136.37 L121.13,100.68 C119.063893,97.9515884 115.675776,96.5650262 112.289643,97.0621481 C108.90351,97.5592699 106.056899,99.8611592 104.862196,103.068294 C103.667493,106.275428 104.314353,109.878685 106.55,112.47 L138,151.28 L106.61,190.09 C104.374353,192.681315 103.727493,196.284572 104.922196,199.491706 C106.116899,202.698841 108.96351,205.00073 112.349643,205.497852 C115.735776,205.994974 119.123893,204.608412 121.19,201.88 L150,166.19 L178.87,201.88 C180.936107,204.608412 184.324224,205.994974 187.710357,205.497852 C191.09649,205.00073 193.943101,202.698841 195.137804,199.491706 C196.332507,196.284572 195.685647,192.681315 193.45,190.09 L162.06,151.28 L193.45,112.47 C196.711173,108.452108 196.097808,102.551276 192.08,99.29 L192.08,99.29 Z" id="Shape"></path>
        </g>
    </g>
</svg>