<?xml version="1.0" encoding="UTF-8"?>
<svg width="299px" height="298px" viewBox="0 0 299 298" version="1.1" xmlns="http://www.w3.org/2000/svg" xmlns:xlink="http://www.w3.org/1999/xlink">
    <!-- Generator: Sketch 43.2 (39069) - http://www.bohemiancoding.com/sketch -->
    <title>label-loading</title>
    <desc>Created with Sketch.</desc>
    <defs></defs>
    <g id="Icons" stroke="none" stroke-width="1" fill="none" fill-rule="evenodd">
        <g id="label-loading" transform="translate(0.750000, 0.000000)" fill-rule="nonzero" fill="#211915">
            <path d="M289.19,140.21 C284.351986,140.21 280.43,144.131986 280.43,148.97 C280.445944,172.543946 274.114331,195.687322 262.1,215.97 C259.614719,220.128704 260.971296,225.514719 265.13,228 C269.288704,230.485281 274.674719,229.128704 277.16,224.97 C290.803658,201.977961 298.002477,175.735431 298,149 C298.008042,146.66282 297.081787,144.419334 295.427264,142.768567 C293.772741,141.1178 291.527156,140.196646 289.19,140.21 Z" id="Shape"></path>
            <path d="M267.71,73.88 C269.600502,72.5237348 270.873786,70.4710981 271.248987,68.1748672 C271.624188,65.8786362 271.07048,63.5274713 269.71,61.64 C241.634552,22.9852195 196.774646,0.0777173892 149,0 C66.84,0 0,66.83 0,149 C0,231.17 66.84,298 149,298 C153.840776,298 157.765,294.075776 157.765,289.235 C157.765,284.394224 153.840776,280.47 149,280.47 C86.9076621,280.470829 33.2831627,237.023298 20.406077,176.280898 C7.52899136,115.538499 38.9117833,54.0698465 95.663401,28.8763493 C152.415019,3.68285202 219.055406,21.6365034 255.47,71.93 C258.313337,75.8454755 263.790726,76.7180987 267.71,73.88 Z" id="Shape"></path>
            <path d="M208,266.46 C203.244174,268.859608 198.344873,270.963602 193.33,272.76 C190.366848,273.800415 188.187362,276.347437 187.617515,279.435803 C187.047669,282.52417 188.174663,285.681283 190.571393,287.710671 C192.968123,289.74006 196.267829,290.331176 199.22,289.26 C204.911703,287.225055 210.472289,284.840515 215.87,282.12 C218.66739,280.71416 220.502277,277.922721 220.683479,274.79719 C220.86468,271.67166 219.364667,268.68688 216.748479,266.96719 C214.132291,265.2475 210.79739,265.05416 208,266.46 L208,266.46 Z" id="Shape"></path>
        </g>
    </g>
</svg>