<?xml version="1.0" encoding="UTF-8"?>
<svg width="299px" height="299px" viewBox="0 0 299 299" version="1.1" xmlns="http://www.w3.org/2000/svg" xmlns:xlink="http://www.w3.org/1999/xlink">
    <!-- Generator: Sketch 43.2 (39069) - http://www.bohemiancoding.com/sketch -->
    <title>label-waiting</title>
    <desc>Created with Sketch.</desc>
    <defs></defs>
    <g id="Icons" stroke="none" stroke-width="1" fill="none" fill-rule="evenodd">
        <g id="label-waiting" transform="translate(-1.000000, 0.000000)" fill-rule="nonzero" fill="#211915">
            <path d="M150.16,0 C89.8295017,-0.00404468346 35.4372841,36.3350581 12.3469993,92.0720098 C-10.7432856,147.808962 2.01574246,211.966977 44.6744169,254.628511 C87.3330914,297.290046 151.490251,310.053375 207.228751,286.966828 C262.967251,263.88028 299.31,209.490498 299.31,149.16 C299.31,66.7851118 232.534888,0.00552258569 150.16,0 Z M150.16,279.67 C78.16,279.67 19.65,221.12 19.65,149.16 C19.65,77.2 78.19,18.64 150.16,18.64 C222.13,18.64 280.67,77.19 280.67,149.16 C280.67,221.13 222.12,279.67 150.16,279.67 Z" id="Shape"></path>
            <path d="M209.07,192.22 L152,152.6 L149.94,77.7 C149.79,72.57 146.41,68.7 140.36,68.63 C135.210314,68.7716588 131.150012,73.060268 131.29,78.21 L133.47,157.82 C133.55104,160.782317 135.036025,163.529539 137.47,165.22 L198.47,207.53 C201.203709,209.480239 204.775199,209.809071 207.819053,208.390778 C210.862906,206.972485 212.908433,204.026387 213.173607,200.678809 C213.438781,197.331231 211.882597,194.099828 209.1,192.22 L209.07,192.22 Z" id="Shape"></path>
        </g>
    </g>
</svg>