<?xml version="1.0" encoding="UTF-8"?>
<svg width="300px" height="300px" viewBox="0 0 300 300" version="1.1" xmlns="http://www.w3.org/2000/svg" xmlns:xlink="http://www.w3.org/1999/xlink">
    <!-- Generator: Sketch 43.2 (39069) - http://www.bohemiancoding.com/sketch -->
    <title>label-atention</title>
    <desc>Created with Sketch.</desc>
    <defs></defs>
    <g id="Icons" stroke="none" stroke-width="1" fill="none" fill-rule="evenodd">
        <g id="label-atention" fill-rule="nonzero" fill="#211915">
            <path d="M150,0 C67.1572875,-5.07265313e-15 1.01453063e-14,67.1572875 0,150 C-1.01453063e-14,232.842712 67.1572875,300 150,300 C232.842712,300 300,232.842712 300,150 C300,110.217527 284.196474,72.0644396 256.066017,43.9339828 C227.93556,15.8035261 189.782473,2.43597394e-15 150,0 Z M150,281.32 C77.65,281.32 18.75,222.42 18.75,150 C18.75,77.58 77.65,18.75 150,18.75 C222.35,18.75 281.32,77.65 281.32,150 C281.32,222.35 222.42,281.32 150,281.32 Z" id="Shape"></path>
            <path d="M150.28,57.22 C145.101811,57.2033829 140.887546,61.3818576 140.86,66.56 L140.44,169 C140.427595,174.105214 144.496302,178.284967 149.6,178.41 L149.78,178.41 C154.958189,178.426617 159.172454,174.248142 159.2,169.07 L159.62,66.64 C159.5358,61.5037071 155.415388,57.3480026 150.28,57.22 L150.28,57.22 Z" id="Shape"></path>
            <circle id="Oval" cx="150.04" cy="217.1" r="9.38"></circle>
        </g>
    </g>
</svg>