<?xml version="1.0" encoding="UTF-8"?>
<svg width="299px" height="299px" viewBox="0 0 299 299" version="1.1" xmlns="http://www.w3.org/2000/svg" xmlns:xlink="http://www.w3.org/1999/xlink">
    <!-- Generator: Sketch 43.2 (39069) - http://www.bohemiancoding.com/sketch -->
    <title>label-check</title>
    <desc>Created with Sketch.</desc>
    <defs></defs>
    <g id="Icons" stroke="none" stroke-width="1" fill="none" fill-rule="evenodd">
        <g id="label-check" fill-rule="nonzero" fill="#211915">
            <path d="M149.17,0 C66.7856839,-5.04458445e-15 1.00891689e-14,66.7856839 0,149.17 C-1.00891689e-14,231.554316 66.7856839,298.34 149.17,298.34 C231.554316,298.34 298.34,231.554316 298.34,149.17 C298.34,109.607656 282.62392,71.665683 254.649119,43.6908815 C226.674317,15.7160799 188.732344,2.42249488e-15 149.17,0 Z M149.17,279.69 C77.0857945,279.69 18.65,221.254206 18.65,149.17 C18.65,77.0857945 77.0857945,18.65 149.17,18.65 C221.254206,18.65 279.69,77.0857945 279.69,149.17 C279.607339,221.219938 221.219938,279.607339 149.17,279.69 L149.17,279.69 Z" id="Shape"></path>
            <path d="M204.1,100.11 L138.24,181.52 L93.1,142.52 C90.5942789,140.23002 87.0425342,139.481631 83.8258373,140.565839 C80.6091404,141.650046 78.2351033,144.395756 77.6268539,147.735319 C77.0186045,151.074881 78.2721278,154.481295 80.9,156.63 L133.34,201.92 C135.037679,203.379707 137.201064,204.18477 139.44,204.19 L140.28,204.19 C142.791996,203.966275 145.105427,202.731965 146.69,200.77 L218.6,111.87 C221.83915,107.868697 221.221303,101.99915 217.22,98.76 C213.218697,95.5208499 207.34915,96.138697 204.11,100.14 L204.1,100.11 Z" id="Shape"></path>
        </g>
    </g>
</svg>